# xmcd CD database file
#
# Track frame offsets:
#	150
#	43439
#	65850
#	89674
#	128346
#	145953
#
# Disc length: 2504 seconds
#
# Revision: 0
# Processed by: cddbd v1.5.2PL0 Copyright (c) Steve Scherf et al.
# Submitted via: CDex 1.70beta2
#
DISCID=5c09c606
DTITLE=Barre Phillips - Three Day Moon 
DYEAR=1978
DGENRE=Jazz
TTITLE0=A-i-a
TTITLE1=Ms. P.
TTITLE2=La Folle
TTITLE3=Brd
TTITLE4=Ingul-Buz
TTITLE5=S. C. and W.
EXTD=YEAR: 1978
EXTT0=
EXTT1=
EXTT2=
EXTT3=
EXTT4=
EXTT5=
PLAYORDER=
